<svg width="114" height="171" viewBox="0 0 114 171" fill="none" xmlns="http://www.w3.org/2000/svg">
<g clip-path="url(#clip0_39_103)">
<path d="M56.7512 85.0253C56.7512 69.3729 69.4527 56.6836 85.1211 56.6836C100.789 56.6836 113.491 69.3729 113.491 85.0253C113.491 100.678 100.789 113.367 85.1211 113.367C69.4527 113.367 56.7512 100.678 56.7512 85.0253Z" fill="#1ABCFE"/>
<path d="M0.0114746 141.708C0.0114746 126.055 12.713 113.366 28.3814 113.366H56.7513V141.708C56.7513 157.361 44.0498 170.05 28.3814 170.05C12.713 170.05 0.0114746 157.361 0.0114746 141.708Z" fill="#0ACF83"/>
<path d="M56.7512 0V56.6829H85.1211C100.79 56.6829 113.491 43.9941 113.491 28.3413C113.491 12.6885 100.79 0 85.1211 0H56.7512Z" fill="#FF7262"/>
<path d="M0.0114746 28.3417C0.0114746 43.9945 12.713 56.6833 28.3814 56.6833H56.7513V0H28.3814C12.713 0 0.0114746 12.6893 0.0114746 28.3417Z" fill="#F24E1E"/>
<path d="M0.0114746 85.0253C0.0114746 100.678 12.713 113.367 28.3814 113.367H56.7513V56.6836H28.3814C12.713 56.6836 0.0114746 69.3729 0.0114746 85.0253Z" fill="#A259FF"/>
</g>
<defs>
<clipPath id="clip0_39_103">
<rect width="113.502" height="170.05" fill="white"/>
</clipPath>
</defs>
</svg>
