<svg width="171" height="166" viewBox="0 0 171 166" fill="none" xmlns="http://www.w3.org/2000/svg">
<g clip-path="url(#clip0_39_99)">
<path d="M84.6962 0C37.9258 0 0 37.9967 0 84.8694C0 122.368 24.268 154.18 57.9206 165.402C62.1533 166.188 63.7076 163.561 63.7076 161.32C63.7076 159.296 63.6286 152.61 63.5927 145.518C40.0295 150.652 35.0575 135.505 35.0575 135.505C31.2048 125.695 25.6536 123.087 25.6536 123.087C17.9695 117.819 26.2329 117.927 26.2329 117.927C34.738 118.526 39.2165 126.674 39.2165 126.674C46.7704 139.648 59.0299 135.897 63.8631 133.729C64.623 128.243 66.8184 124.5 69.2402 122.38C50.4285 120.234 30.6522 112.956 30.6522 80.4371C30.6522 71.1717 33.9608 63.6003 39.3792 57.657C38.4997 55.5191 35.6009 46.8874 40.1996 35.1971C40.1996 35.1971 47.3118 32.9161 63.4971 43.8968C70.2526 42.0157 77.4983 41.0732 84.6962 41.0413C91.8941 41.0732 99.1451 42.0157 105.914 43.8968C122.08 32.9161 129.182 35.1971 129.182 35.1971C133.792 46.8874 130.892 55.5191 130.013 57.657C135.443 63.6003 138.729 71.1711 138.729 80.4371C138.729 113.034 118.915 120.212 100.056 122.312C103.093 124.946 105.8 130.111 105.8 138.029C105.8 149.384 105.702 158.524 105.702 161.32C105.702 163.578 107.226 166.224 111.52 165.391C145.154 154.156 169.392 122.355 169.392 84.8694C169.392 37.9967 131.471 0 84.6962 0Z" fill="#161614"/>
<path d="M31.7216 120.899C31.5356 121.32 30.8727 121.446 30.2702 121.158C29.6558 120.881 29.3103 120.306 29.5096 119.882C29.6923 119.448 30.3552 119.327 30.9683 119.619C31.5841 119.895 31.9348 120.475 31.7216 120.899ZM35.8878 124.623C35.484 124.999 34.6942 124.824 34.1581 124.231C33.6041 123.64 33.5005 122.849 33.9103 122.467C34.3268 122.093 35.0927 122.268 35.648 122.86C36.202 123.459 36.3096 124.245 35.8872 124.624M38.7461 129.389C38.2267 129.751 37.3778 129.412 36.8537 128.657C36.3349 127.903 36.3349 126.998 36.8649 126.635C37.391 126.272 38.2267 126.598 38.7581 127.347C39.2762 128.115 39.2762 129.02 38.7455 129.39M43.5793 134.909C43.115 135.422 42.1265 135.285 41.4025 134.584C40.6625 133.9 40.4559 132.929 40.9216 132.416C41.3912 131.902 42.3856 132.046 43.1149 132.741C43.8503 133.424 44.0741 134.402 43.5793 134.909ZM49.8259 136.773C49.622 137.437 48.6695 137.739 47.7103 137.457C46.7524 137.166 46.1254 136.388 46.3187 135.716C46.5179 135.047 47.4745 134.732 48.441 135.034C49.3975 135.324 50.0252 136.097 49.8259 136.773ZM56.9362 137.563C56.9601 138.263 56.1464 138.844 55.1393 138.856C54.1264 138.878 53.3073 138.312 53.2967 137.624C53.2967 136.917 54.0918 136.342 55.1041 136.325C56.1112 136.305 56.9362 136.867 56.9362 137.563ZM63.9202 137.295C64.0411 137.978 63.3409 138.679 62.3412 138.866C61.3581 139.045 60.4481 138.624 60.3225 137.947C60.2003 137.247 60.9137 136.546 61.8948 136.364C62.8965 136.19 63.7926 136.601 63.9202 137.295Z" fill="#161614"/>
</g>
<defs>
<clipPath id="clip0_39_99">
<rect width="170.05" height="165.763" fill="white"/>
</clipPath>
</defs>
</svg>
