<?xml version="1.0" encoding="UTF-8"?>
<svg id="Ebene_1" xmlns="http://www.w3.org/2000/svg" version="1.1" viewBox="0 0 2490.32 2493.85">
  <!-- Generator: Adobe Illustrator 29.6.1, SVG Export Plug-In . SVG Version: 2.1.1 Build 9)  -->
  <defs>
    <style>
      .st0 {
        fill: #161614;
      }

      .st1 {
        fill: #d9d9d9;
      }
    </style>
  </defs>
  <g>
    <path class="st1" d="M2039.53,1180.15c0-135.95-48.31-247.02-128.14-334.22,12.93-31.37,55.56-158.01-12.21-329.52,0,0-104.41-33.46-342.08,127.64-99.51-27.59-206.11-41.42-311.93-41.89-105.82.46-212.34,14.29-311.66,41.89-237.95-161.11-342.51-127.64-342.51-127.64-67.61,171.51-24.99,298.15-12.06,329.52-79.66,87.2-128.3,198.28-128.3,334.22,0,477.11,290.74,583.88,567.3,615.37-35.6,31.09-67.88,86.01-79.05,166.5-71.05,31.8-251.29,86.84-362.34-103.52,0,0-65.84-119.53-190.88-128.32,0,0-121.49-1.59-8.52,75.7,0,0,81.61,38.26,138.25,182.19,0,0,73.09,222.23,419.51,146.91.53,104.05,1.69,202.14,1.69,231.83,0,31.74-21.28,68.72-78.68,60.92,121.88,39.77,252.05,61.27,387.24,61.27s265.2-21.48,387.03-61.21c-57.55,7.92-78.21-29.15-78.21-60.96,0-41.02,1.45-175.11,1.45-341.71,0-116.17-39.79-191.95-84.45-230.59,277.26-30.83,568.55-136.14,568.55-614.38ZM466.36,1773.77c-2.73,6.18-12.48,8.04-21.34,3.8-9.03-4.06-14.11-12.5-11.18-18.71,2.69-6.37,12.43-8.14,21.45-3.87,9.05,4.05,14.21,12.57,11.07,18.78ZM527.61,1828.43h0c-5.94,5.5-17.55,2.94-25.43-5.76-8.14-8.68-9.67-20.28-3.64-25.88,6.12-5.5,17.38-2.93,25.55,5.76,8.14,8.78,9.73,20.31,3.52,25.88ZM569.62,1898.35c-7.64,5.29-20.11.32-27.81-10.75-7.63-11.06-7.63-24.35.17-29.67,7.73-5.32,20.02-.54,27.83,10.45,7.62,11.26,7.62,24.54-.19,29.97ZM640.7,1979.33h-.02c-6.83,7.52-21.36,5.51-32-4.77-10.88-10.04-13.92-24.29-7.07-31.82,6.9-7.54,21.52-5.42,32.25,4.77,10.81,10.02,14.11,24.38,6.84,31.82ZM732.53,2006.67h-.01c-3,9.75-17,14.18-31.1,10.04-14.08-4.27-23.3-15.69-20.46-25.55,2.93-9.81,16.99-14.43,31.2-10,14.06,4.25,23.3,15.59,20.37,25.51ZM810.63,2037.23c-14.89.32-26.93-7.99-27.09-18.09,0-10.37,11.69-18.81,26.57-19.05,14.8-.29,26.93,7.96,26.93,18.16h.01c.35,10.28-11.61,18.8-26.42,18.98ZM916.52,2037.38c-14.45,2.64-27.83-3.54-29.68-13.48-1.8-10.27,8.69-20.56,23.12-23.22,14.73-2.56,27.9,3.47,29.78,13.65h-.01c1.78,10.02-8.52,20.31-23.21,23.05Z"/>
    <path class="st1" d="M455.29,1754.99c9.05,4.05,14.21,12.57,11.07,18.78-2.73,6.18-12.48,8.04-21.34,3.8-9.03-4.06-14.11-12.5-11.18-18.71,2.69-6.37,12.43-8.14,21.45-3.87Z"/>
    <path class="st1" d="M527.61,1828.43h0c-5.94,5.5-17.55,2.94-25.43-5.76-8.14-8.68-9.67-20.28-3.64-25.88,6.12-5.5,17.38-2.93,25.55,5.76,8.14,8.78,9.73,20.31,3.52,25.88Z"/>
    <path class="st1" d="M569.81,1868.38c7.62,11.26,7.62,24.54-.19,29.97-7.64,5.29-20.11.32-27.81-10.75-7.63-11.06-7.63-24.35.17-29.67,7.73-5.32,20.02-.54,27.83,10.45Z"/>
    <path class="st1" d="M633.86,1947.51c10.81,10.02,14.11,24.38,6.84,31.82h-.02c-6.83,7.52-21.36,5.51-32-4.77-10.88-10.04-13.92-24.29-7.07-31.82,6.9-7.54,21.52-5.42,32.25,4.77Z"/>
    <path class="st1" d="M712.16,1981.16c14.06,4.25,23.3,15.59,20.37,25.51h-.01c-3,9.75-17,14.18-31.1,10.04-14.08-4.27-23.3-15.69-20.46-25.55,2.93-9.81,16.99-14.43,31.2-10Z"/>
    <path class="st1" d="M837.04,2018.25h.01c.35,10.28-11.61,18.8-26.42,18.98-14.89.32-26.93-7.99-27.09-18.09,0-10.37,11.69-18.81,26.57-19.05,14.8-.29,26.93,7.96,26.93,18.16Z"/>
    <path class="st1" d="M939.74,2014.33h-.01c1.78,10.02-8.52,20.31-23.21,23.05-14.45,2.64-27.83-3.54-29.68-13.48-1.8-10.27,8.69-20.56,23.12-23.22,14.73-2.56,27.9,3.47,29.78,13.65Z"/>
  </g>
  <g>
    <path class="st0" d="M2490.32,1245.19c0,178.31-37.46,347.86-104.93,501.19-2.7,6.14-5.45,12.25-8.25,18.33-142.83,310.79-409.88,552.61-737.62,661.86-2.51.49-4.95.89-7.33,1.22-57.55,7.92-78.21-29.15-78.21-60.96,0-41.02,1.45-175.11,1.45-341.71,0-116.17-39.79-191.95-84.45-230.59,277.26-30.83,568.55-136.14,568.55-614.38,0-135.95-48.31-247.02-128.14-334.22,12.93-31.37,55.56-158.01-12.21-329.52,0,0-104.41-33.46-342.08,127.64-99.51-27.59-206.11-41.42-311.93-41.89-105.82.46-212.34,14.29-311.66,41.89-237.95-161.11-342.51-127.64-342.51-127.64-67.61,171.51-24.99,298.15-12.06,329.52-79.66,87.2-128.3,198.28-128.3,334.22,0,477.11,290.74,583.88,567.3,615.37-35.6,31.09-67.88,86.01-79.05,166.5-71.05,31.8-251.29,86.84-362.34-103.52,0,0-65.84-119.53-190.88-128.32,0,0-121.49-1.59-8.52,75.7,0,0,81.61,38.26,138.25,182.19,0,0,73.09,222.23,419.51,146.91.53,104.05,1.69,202.14,1.69,231.83,0,31.74-21.28,68.72-78.68,60.92-2.08-.28-4.22-.62-6.4-1.02-301.48-100.33-551.73-312.84-701.24-588.04-2-3.69-3.99-7.38-5.95-11.09-.86-1.62-1.71-3.24-2.56-4.86-.94-1.78-1.87-3.56-2.79-5.34C51.1,1647.84,1.05,1455.53.02,1251.61c-.01-2.14-.02-4.29-.02-6.44,0-1.76,0-3.52.02-5.28.02-4.41.07-8.82.14-13.22C10.05,547.5,563.75,0,1245.17,0s1231.36,543.81,1244.87,1219.8c.09,4.38.16,8.76.21,13.15.03,1.51.04,3.02.04,4.54.02,2.56.03,5.13.03,7.7Z"/>
    <path class="st0" d="M939.73,2014.33h.01c-1.88-10.18-15.05-16.21-29.78-13.65-14.43,2.66-24.92,12.95-23.12,23.22,1.85,9.94,15.23,16.12,29.68,13.48,14.69-2.74,24.99-13.03,23.21-23.05ZM837.04,2018.25c0-10.2-12.13-18.45-26.93-18.16-14.88.24-26.57,8.68-26.57,19.05.16,10.1,12.2,18.41,27.09,18.09,14.81-.18,26.77-8.7,26.42-18.97h-.01ZM712.16,1981.16c-14.21-4.43-28.27.19-31.2,10-2.84,9.86,6.38,21.28,20.46,25.55,14.1,4.14,28.1-.29,31.1-10.04h.01c2.93-9.92-6.31-21.26-20.37-25.51ZM633.86,1947.51c-10.73-10.19-25.35-12.31-32.25-4.77-6.85,7.53-3.81,21.78,7.07,31.82,10.64,10.28,25.17,12.29,32,4.77h.02c7.27-7.44,3.97-21.8-6.84-31.82ZM569.81,1868.38c-7.81-10.99-20.1-15.77-27.83-10.45-7.8,5.32-7.8,18.61-.17,29.67,7.7,11.07,20.17,16.04,27.81,10.75,7.81-5.43,7.81-18.71.19-29.97ZM524.09,1802.55c-8.17-8.69-19.43-11.26-25.55-5.76-6.03,5.6-4.5,17.2,3.64,25.88,7.88,8.7,19.49,11.26,25.43,5.75h0c6.21-5.56,4.62-17.09-3.52-25.87ZM455.29,1754.99c-9.02-4.27-18.76-2.5-21.45,3.87-2.93,6.21,2.15,14.65,11.18,18.71,8.86,4.24,18.61,2.38,21.34-3.8,3.14-6.21-2.02-14.73-11.07-18.78Z"/>
  </g>
</svg>