<svg width="171" height="185" viewBox="0 0 171 185" fill="none" xmlns="http://www.w3.org/2000/svg">
<path d="M59.9952 39.6736C35.9062 35.2804 16.8596 39.8797 9.26878 53.0439C3.60433 62.8674 5.22136 75.8939 13.1932 89.8178C13.3545 90.0999 13.5697 90.3473 13.8266 90.5461C14.0834 90.7448 14.3768 90.8909 14.6901 90.9759C15.0034 91.061 15.3303 91.0835 15.6522 91.042C15.9741 91.0005 16.2847 90.8959 16.5662 90.7341C17.1348 90.4075 17.5505 89.8682 17.7221 89.2347C17.8937 88.6013 17.807 87.9255 17.4813 87.356C10.2995 74.8147 8.89986 63.5727 13.5476 55.5173C19.8526 44.5812 36.8397 40.4789 59.1082 44.541C59.5108 44.6207 59.9268 44.5987 60.3187 44.4771C60.7107 44.3556 61.0663 44.1382 61.3533 43.8446C61.6404 43.551 61.85 43.1905 61.9631 42.7955C62.0763 42.4006 62.0894 41.9836 62.0014 41.5823C61.8951 41.0998 61.647 40.6602 61.289 40.3201C60.931 39.98 60.4795 39.755 59.9927 39.6741L59.9952 39.6736ZM25.7199 106.741C35.4594 117.46 48.1138 127.513 62.5456 135.857C97.4875 156.059 134.687 161.458 153.02 148.94C153.548 148.566 153.908 147.998 154.022 147.36C154.137 146.722 153.997 146.065 153.632 145.529C153.267 144.993 152.707 144.623 152.073 144.496C151.438 144.37 150.779 144.498 150.237 144.853C133.829 156.056 98.4921 150.927 65.0162 131.573C51.0143 123.477 38.7617 113.743 29.3747 103.413C29.0483 103.042 28.6185 102.777 28.1406 102.653C27.6628 102.529 27.1588 102.551 26.6935 102.716C26.3067 102.854 25.9603 103.085 25.6855 103.391C25.4107 103.696 25.2162 104.065 25.1196 104.465C25.023 104.864 25.0272 105.281 25.1321 105.679C25.2369 106.076 25.4389 106.441 25.7199 106.741Z" fill="#2DD0ED"/>
<path d="M147.174 103.732C162.946 85.0741 168.454 66.307 160.88 53.169C155.306 43.5021 143.521 38.3982 127.862 38.1945C127.207 38.1861 126.576 38.4384 126.106 38.896C125.637 39.3536 125.368 39.9791 125.359 40.635C125.351 41.1244 125.49 41.6049 125.756 42.0154C126.022 42.426 126.404 42.7481 126.853 42.9407C127.151 43.0691 127.472 43.1375 127.796 43.1419C141.88 43.3242 152.034 47.7223 156.601 55.6429C162.892 66.5557 157.982 83.2915 143.403 100.537C143.186 100.784 143.02 101.071 142.916 101.383C142.811 101.695 142.77 102.024 142.794 102.352C142.818 102.68 142.907 103 143.056 103.293C143.205 103.586 143.411 103.846 143.662 104.058C143.913 104.27 144.203 104.43 144.517 104.529C144.83 104.627 145.159 104.662 145.486 104.632C145.813 104.601 146.13 104.506 146.42 104.352C146.71 104.197 146.966 103.987 147.174 103.732ZM106.638 40.4978C92.3766 43.5584 77.1978 49.5403 62.6212 57.9675C26.5474 78.8226 3.01619 109.572 6.2856 131.871C6.32626 132.198 6.43171 132.513 6.59578 132.799C6.75984 133.084 6.97921 133.334 7.241 133.533C7.5028 133.733 7.80175 133.878 8.1203 133.96C8.43886 134.042 8.7706 134.06 9.09607 134.012C9.42153 133.964 9.73416 133.852 10.0156 133.681C10.297 133.511 10.5416 133.285 10.735 133.019C10.9284 132.753 11.0667 132.45 11.1417 132.129C11.2167 131.809 11.2271 131.476 11.172 131.151C8.27154 111.355 30.5754 82.2051 65.0894 62.2522C79.2307 54.0761 93.9297 48.2856 107.674 45.3337C108.295 45.1774 108.831 44.7857 109.17 44.2413C109.508 43.6968 109.622 43.0421 109.488 42.4151C109.354 41.7881 108.981 41.2377 108.45 40.8801C107.918 40.5224 107.269 40.3854 106.638 40.4978Z" fill="#2DD0ED"/>
<path d="M48.1987 147.328C56.4489 170.385 69.9381 184.583 85.1101 184.583C96.1732 184.583 106.409 177.032 114.392 163.735C114.571 163.456 114.693 163.145 114.749 162.818C114.806 162.492 114.796 162.158 114.722 161.835C114.628 161.431 114.434 161.057 114.159 160.747C113.883 160.438 113.533 160.202 113.143 160.064C112.753 159.925 112.333 159.886 111.924 159.952C111.515 160.018 111.129 160.186 110.802 160.44C110.541 160.643 110.323 160.896 110.161 161.185C102.986 173.135 94.1732 179.638 85.1101 179.638C72.5098 179.638 60.475 166.973 52.8513 145.659C52.7467 145.347 52.581 145.059 52.364 144.812C52.1469 144.564 51.8829 144.363 51.5872 144.218C51.2913 144.075 50.9699 143.992 50.6417 143.974C50.3134 143.956 49.9849 144.005 49.6755 144.116C49.3661 144.227 49.082 144.399 48.8397 144.622C48.5974 144.844 48.4019 145.113 48.2644 145.412C48.127 145.711 48.0505 146.034 48.0394 146.363C48.0287 146.692 48.0836 147.02 48.2011 147.328H48.1987ZM123.529 142.816C127.798 129.158 130.089 113.397 130.089 96.9734C130.089 55.9972 115.768 20.6719 95.3671 11.6008C94.7709 11.3496 94.1001 11.3426 93.4988 11.5813C92.8975 11.8199 92.4136 12.2852 92.1511 12.8772C91.8886 13.4692 91.8684 14.1406 92.0949 14.7473C92.3213 15.354 92.7764 15.8476 93.3623 16.122C111.558 24.2133 125.151 57.7372 125.151 96.9734C125.151 112.904 122.929 128.168 118.816 141.339C118.709 141.652 118.666 141.982 118.689 142.311C118.713 142.64 118.802 142.962 118.951 143.256C119.176 143.699 119.529 144.064 119.964 144.303C120.399 144.543 120.896 144.646 121.39 144.598C121.884 144.551 122.352 144.355 122.734 144.037C123.115 143.719 123.393 143.294 123.529 142.816ZM170.05 140.394C170.06 138.833 169.761 137.286 169.172 135.841C168.582 134.396 167.713 133.082 166.614 131.975C165.515 130.867 164.208 129.989 162.769 129.389C161.33 128.789 159.786 128.481 158.228 128.481C156.669 128.481 155.125 128.789 153.686 129.389C152.247 129.989 150.94 130.868 149.841 131.975C148.743 133.082 147.873 134.396 147.284 135.841C146.694 137.286 146.396 138.834 146.406 140.395C146.426 143.521 147.68 146.513 149.895 148.717C152.11 150.92 155.106 152.157 158.228 152.157C161.35 152.157 164.346 150.92 166.561 148.716C168.776 146.513 170.03 143.521 170.05 140.394ZM165.109 140.394C165.109 142.222 164.384 143.974 163.093 145.267C161.803 146.559 160.052 147.285 158.228 147.285C156.867 147.285 155.536 146.881 154.405 146.124C153.273 145.367 152.391 144.291 151.871 143.031C151.35 141.772 151.214 140.387 151.479 139.05C151.745 137.714 152.4 136.486 153.362 135.523C154.325 134.559 155.551 133.903 156.885 133.637C158.22 133.371 159.604 133.507 160.861 134.029C162.118 134.55 163.193 135.433 163.949 136.566C164.705 137.699 165.109 139.032 165.109 140.394ZM11.8222 152.233C13.3748 152.233 14.9122 151.927 16.3466 151.332C17.7811 150.737 19.0844 149.865 20.1823 148.766C21.2801 147.666 22.1509 146.361 22.745 144.925C23.339 143.489 23.6447 141.949 23.6445 140.394C23.6446 138.84 23.3389 137.3 22.7448 135.864C22.1507 134.427 21.2798 133.122 20.1819 132.023C19.0841 130.924 17.7807 130.052 16.3462 129.457C14.9118 128.862 13.3744 128.556 11.8218 128.556C10.2692 128.556 8.73192 128.862 7.29758 129.457C5.86324 130.052 4.55997 130.924 3.4622 132.023C2.36443 133.123 1.49366 134.428 0.89961 135.864C0.305561 137.3 -0.000127128 138.84 3.9663e-08 140.394C-0.000127136 141.949 0.305577 143.488 0.899656 144.925C1.49373 146.361 2.36455 147.666 3.46237 148.766C4.56019 149.865 5.86352 150.737 7.29792 151.332C8.73231 151.927 10.2697 152.233 11.8222 152.233ZM11.8222 147.285C9.99675 147.285 8.24602 146.559 6.9552 145.267C5.66438 143.974 4.93921 142.221 4.93921 140.393C4.93921 138.565 5.66438 136.812 6.9552 135.519C8.24602 134.227 9.99675 133.501 11.8222 133.501C13.6477 133.501 15.3985 134.227 16.6893 135.519C17.9801 136.812 18.7053 138.565 18.7053 140.393C18.7053 142.221 17.9801 143.974 16.6893 145.267C15.3985 146.559 13.6477 147.285 11.8222 147.285Z" fill="#2DD0ED"/>
<path d="M85.1099 23.6766C87.4482 23.6768 89.734 22.9825 91.6782 21.6816C93.6224 20.3807 95.1376 18.5316 96.0321 16.3683C96.7757 14.5696 97.0649 12.6152 96.8741 10.6779C96.6834 8.7407 96.0185 6.88045 94.9385 5.26188C93.8585 3.64332 92.3965 2.31639 90.6822 1.39858C88.9678 0.48077 87.0539 0.000399716 85.1099 1.70906e-07C82.7716 -0.000397629 80.4856 0.693651 78.5412 1.99436C76.5969 3.29506 75.0814 5.14399 74.1865 7.30727C73.2916 9.47054 73.0576 11.851 73.5139 14.1475C73.9703 16.444 75.0965 18.5534 76.7502 20.2088C77.848 21.3081 79.1513 22.1802 80.5857 22.7751C82.02 23.37 83.5574 23.6766 85.1099 23.6766ZM85.1099 18.7287C83.7489 18.7286 82.4186 18.3244 81.2869 17.5673C80.1553 16.8102 79.2732 15.7341 78.7522 14.4751C78.406 13.6392 78.2278 12.743 78.2278 11.8381C78.2278 10.9331 78.406 10.037 78.7522 9.201C79.0978 8.36493 79.6046 7.60526 80.2436 6.96541C80.8826 6.32556 81.6413 5.81806 82.4762 5.47192C83.4164 5.08197 84.4313 4.90566 85.4477 4.95568C86.4642 5.0057 87.4569 5.28082 88.3544 5.76121C89.2519 6.2416 90.0318 6.91532 90.638 7.73384C91.2443 8.55236 91.6617 9.49531 91.8602 10.4948C92.0587 11.4943 92.0334 12.5254 91.7862 13.5139C91.5389 14.5024 91.0758 15.4237 90.4301 16.2115C89.7845 16.9992 88.9725 17.6338 88.0526 18.0695C87.1326 18.5052 86.1276 18.7312 85.1099 18.7312V18.7287ZM86.9158 105.349C84.698 105.828 82.3808 105.406 80.4738 104.175C79.0514 103.257 77.9328 101.937 77.2595 100.383C76.5863 98.8279 76.3886 97.1082 76.6915 95.441C76.9945 93.7739 77.7844 92.2341 78.9613 91.0165C80.1383 89.799 81.6494 88.9583 83.3036 88.6009C85.5062 88.1601 87.7935 88.6044 89.6719 89.8376C91.5503 91.0709 92.8691 92.9942 93.3437 95.1927C93.8175 97.3912 93.4091 99.6881 92.2065 101.588C91.0039 103.487 89.1036 104.837 86.9158 105.346V105.349Z" fill="#2DD0ED"/>
</svg>
