<svg width="171" height="171" viewBox="0 0 171 171" fill="none" xmlns="http://www.w3.org/2000/svg">
<g clip-path="url(#clip0_39_96)">
<path d="M0 85.025V0H170.05V170.05H0" fill="#007ACC"/>
<path d="M37.2834 85.3224V92.2519H59.3899V155.17H75.0771V92.2519H97.1836V85.4499C97.1836 81.6238 97.1836 78.5204 97.0135 78.4353C97.0135 78.3078 83.537 78.2653 67.1697 78.2653L37.411 78.3928V85.3649L37.2834 85.3224ZM136.635 78.2228C140.971 79.2431 144.287 81.1987 147.263 84.3021C148.836 86.0026 151.174 88.9784 151.344 89.7437C151.344 89.9987 143.99 94.9727 139.526 97.736C139.356 97.8636 138.676 97.1408 137.996 96.0355C135.785 92.8896 133.532 91.5292 130.003 91.2741C124.902 90.934 121.501 93.6123 121.501 98.0761C121.501 99.4365 121.756 100.202 122.266 101.307C123.414 103.645 125.539 105.048 132.129 107.939C144.287 113.168 149.559 116.612 152.747 121.543C156.361 127.07 157.169 135.742 154.745 142.247C152.025 149.346 145.393 154.15 135.912 155.723C132.937 156.233 126.135 156.148 122.946 155.596C116.144 154.32 109.64 150.919 105.644 146.54C104.071 144.84 101.052 140.291 101.222 139.993L102.838 138.973L109.215 135.275L114.019 132.469L115.124 133.957C116.527 136.167 119.673 139.143 121.501 140.164C127.027 143.012 134.425 142.629 138.081 139.313C139.654 137.868 140.334 136.337 140.334 134.212C140.334 132.256 140.036 131.363 139.058 129.875C137.698 128.005 134.977 126.474 127.325 123.073C118.525 119.332 114.784 116.952 111.298 113.296C109.3 111.085 107.472 107.641 106.621 104.793C105.984 102.327 105.771 96.2906 106.366 93.8674C108.194 85.3649 114.614 79.4131 123.796 77.7126C126.772 77.1175 133.787 77.3725 136.72 78.1378L136.635 78.2228Z" fill="white"/>
</g>
<defs>
<clipPath id="clip0_39_96">
<rect width="170.05" height="170.05" fill="white"/>
</clipPath>
</defs>
</svg>
