<svg width="35" height="20" viewBox="0 0 35 20" fill="none" xmlns="http://www.w3.org/2000/svg">
<path d="M2.7216 1.89864C2.53561 2.31997 1.87268 2.44643 1.2702 2.15755C0.655758 1.88066 0.310344 1.30557 0.509621 0.882233C0.692292 0.448251 1.35522 0.327112 1.96833 0.618652C2.5841 0.894883 2.93483 1.4753 2.7216 1.89864ZM6.88783 5.62342C6.48396 5.99883 5.69415 5.82444 5.1581 5.23138C4.60411 4.63965 4.50048 3.84889 4.91033 3.46749C5.32682 3.09275 6.09271 3.2678 6.64803 3.8602C7.20202 4.45859 7.30963 5.24469 6.88716 5.62409M9.74613 10.3892C9.22668 10.7507 8.37776 10.4119 7.85366 9.65706C7.33487 8.90291 7.33487 7.99768 7.86495 7.63492C8.39104 7.27216 9.22668 7.59831 9.75808 8.34713C10.2762 9.11459 10.2762 10.0198 9.74546 10.3899M14.5793 15.9092C14.115 16.4217 13.1265 16.2846 12.4025 15.5844C11.6625 14.9001 11.4559 13.929 11.9216 13.4158C12.3912 12.9019 13.3856 13.0464 14.1149 13.7406C14.8503 14.4235 15.0741 15.402 14.5793 15.9092ZM20.8259 17.7729C20.622 18.4372 19.6695 18.7394 18.7103 18.4572C17.7524 18.1663 17.1254 17.3875 17.3187 16.7159C17.5179 16.047 18.4745 15.7321 19.441 16.0343C20.3975 16.3239 21.0252 17.0967 20.8259 17.7729ZM27.9362 18.563C27.9601 19.2632 27.1464 19.8437 26.1393 19.8563C25.1264 19.8783 24.3073 19.3118 24.2967 18.6236C24.2967 17.9167 25.0918 17.3416 26.1041 17.325C27.1112 17.305 27.9362 17.8674 27.9362 18.563ZM34.9202 18.2948C35.0411 18.9777 34.3409 19.6793 33.3412 19.8656C32.3581 20.0453 31.4481 19.624 31.3225 18.9471C31.2003 18.2468 31.9137 17.546 32.8948 17.3642C33.8965 17.1898 34.7926 17.6005 34.9202 18.2948Z" fill="#161614"/>
</svg>
