<svg width="170" height="166" viewBox="0 0 170 166" fill="none" xmlns="http://www.w3.org/2000/svg">
<path d="M84.6962 0C37.9258 0 0 37.9967 0 84.8694C0 122.368 24.268 154.18 57.9206 165.402C62.1533 166.188 63.7076 163.561 63.7076 161.32C63.7076 159.296 63.6286 152.61 63.5927 145.518C40.0295 150.652 35.0575 135.505 35.0575 135.505C31.2048 125.695 25.6536 123.087 25.6536 123.087C17.9695 117.819 26.2329 117.927 26.2329 117.927C34.738 118.526 39.2165 126.674 39.2165 126.674C46.7704 139.648 59.0299 135.897 63.8631 133.729C64.623 128.243 66.8184 124.5 69.2402 122.38C50.4285 120.234 30.6522 112.956 30.6522 80.4371C30.6522 71.1717 33.9608 63.6003 39.3792 57.657C38.4997 55.5191 35.6009 46.8874 40.1996 35.1971C40.1996 35.1971 47.3118 32.9161 63.4971 43.8968C70.2526 42.0157 77.4983 41.0732 84.6962 41.0413C91.8941 41.0732 99.1451 42.0157 105.914 43.8968C122.08 32.9161 129.182 35.1971 129.182 35.1971C133.792 46.8874 130.892 55.5191 130.013 57.657C135.443 63.6003 138.729 71.1711 138.729 80.4371C138.729 113.034 118.915 120.212 100.056 122.312C103.093 124.946 105.8 130.111 105.8 138.029C105.8 149.384 105.702 158.524 105.702 161.32C105.702 163.578 107.226 166.224 111.52 165.391C145.154 154.156 169.392 122.355 169.392 84.8694C169.392 37.9967 131.471 0 84.6962 0Z" fill="#161614"/>
</svg>
