<svg width="24" height="106" viewBox="0 0 24 106" fill="none" xmlns="http://www.w3.org/2000/svg">
<path d="M12.1099 23.6766C14.4482 23.6768 16.734 22.9825 18.6782 21.6816C20.6224 20.3807 22.1376 18.5316 23.0321 16.3683C23.7757 14.5696 24.0649 12.6152 23.8741 10.6779C23.6834 8.7407 23.0185 6.88045 21.9385 5.26188C20.8585 3.64332 19.3965 2.31639 17.6822 1.39858C15.9678 0.48077 14.0539 0.000399716 12.1099 1.70906e-07C9.77157 -0.000397629 7.48562 0.693651 5.54124 1.99436C3.59685 3.29506 2.08139 5.14399 1.18652 7.30727C0.291645 9.47054 0.0575804 11.851 0.513929 14.1475C0.970277 16.444 2.09654 18.5534 3.75025 20.2088C4.84805 21.3081 6.15133 22.1802 7.58569 22.7751C9.02005 23.37 10.5574 23.6766 12.1099 23.6766ZM12.1099 18.7287C10.7489 18.7286 9.41856 18.3244 8.28693 17.5673C7.1553 16.8102 6.27322 15.7341 5.75217 14.4751C5.406 13.6392 5.22781 12.743 5.22781 11.8381C5.22781 10.9331 5.406 10.037 5.75217 9.201C6.09784 8.36493 6.60464 7.60526 7.24363 6.96541C7.88261 6.32556 8.64125 5.81806 9.47619 5.47192C10.4164 5.08197 11.4313 4.90566 12.4477 4.95568C13.4642 5.0057 14.4569 5.28082 15.3544 5.76121C16.2519 6.2416 17.0318 6.91532 17.638 7.73384C18.2443 8.55236 18.6617 9.49531 18.8602 10.4948C19.0587 11.4943 19.0334 12.5254 18.7862 13.5139C18.5389 14.5024 18.0758 15.4237 17.4301 16.2115C16.7845 16.9992 15.9725 17.6338 15.0526 18.0695C14.1326 18.5052 13.1276 18.7312 12.1099 18.7312V18.7287ZM13.9158 105.349C11.698 105.828 9.38084 105.406 7.47378 104.175C6.05135 103.257 4.93277 101.937 4.25952 100.383C3.58627 98.8279 3.38861 97.1082 3.69153 95.441C3.99446 93.7739 4.78436 92.2341 5.96132 91.0165C7.13827 89.799 8.64942 88.9583 10.3036 88.6009C12.5062 88.1601 14.7935 88.6044 16.6719 89.8376C18.5503 91.0709 19.8691 92.9942 20.3437 95.1927C20.8175 97.3912 20.4091 99.6881 19.2065 101.588C18.0039 103.487 16.1036 104.837 13.9158 105.346V105.349Z" fill="#2DD0ED"/>
</svg>
