<svg width="171" height="152" viewBox="0 0 171 152" fill="none" xmlns="http://www.w3.org/2000/svg">
<path d="M170.05 75.7124C170.05 64.4693 155.943 53.8143 134.314 47.2068C139.305 25.2048 137.087 7.70016 127.312 2.09589C125.059 0.781313 122.425 0.158617 119.548 0.158617V7.87313C121.142 7.87313 122.425 8.18448 123.499 8.77258C128.213 11.4709 130.258 21.7454 128.664 34.9604C128.283 38.2123 127.659 41.6371 126.896 45.1311C120.103 43.4706 112.685 42.1906 104.886 41.3603C100.207 34.9604 95.3542 29.1486 90.4669 24.0632C101.767 13.5812 112.373 7.83854 119.583 7.83854V0.124023C110.051 0.124023 97.5725 6.90449 84.9557 18.6665C72.3388 6.97368 59.8607 0.262401 50.3287 0.262401V7.97691C57.5037 7.97691 68.1448 13.685 79.4445 24.0978C74.5919 29.1832 69.7392 34.9604 65.1292 41.3603C57.2957 42.1906 49.8781 43.4706 43.0844 45.1657C42.2872 41.7063 41.698 38.3506 41.282 35.1334C39.6529 21.9184 41.6633 11.6439 46.3426 8.91096C47.3825 8.28826 48.7343 8.01151 50.3287 8.01151V0.296995C47.4171 0.296995 44.7828 0.91969 42.4952 2.23427C32.7552 7.83853 30.5716 25.3086 35.5975 47.2413C14.038 53.8834 0 64.5039 0 75.7124C0 86.9555 14.1073 97.6105 35.7361 104.218C30.7449 126.22 32.9632 143.725 42.7378 149.329C44.9908 150.643 47.6251 151.266 50.5367 151.266C60.0686 151.266 72.5468 144.486 85.1637 132.724C97.7805 144.417 110.259 151.128 119.791 151.128C122.702 151.128 125.337 150.505 127.624 149.191C137.364 143.586 139.548 126.116 134.522 104.183C156.012 97.5759 170.05 86.9209 170.05 75.7124ZM124.921 52.6381C123.638 57.1007 122.044 61.7017 120.241 66.3028C118.82 63.5352 117.33 60.7677 115.701 58.0002C114.106 55.2326 112.408 52.5343 110.709 49.9051C115.631 50.6316 120.38 51.531 124.921 52.6381ZM109.046 89.4809C106.342 94.1511 103.569 98.5792 100.692 102.696C95.5275 103.146 90.2936 103.388 85.025 103.388C79.7911 103.388 74.5572 103.146 69.4273 102.73C66.5504 98.6138 63.7428 94.2203 61.0391 89.5847C58.4049 85.0528 56.0132 80.4518 53.8295 75.8162C55.9786 71.1805 58.4049 66.5449 61.0045 62.0131C63.7081 57.3429 66.481 52.9148 69.3579 48.7981C74.5225 48.3484 79.7564 48.1062 85.025 48.1062C90.2589 48.1062 95.4928 48.3484 100.623 48.7635C103.5 52.8802 106.307 57.2737 109.011 61.9093C111.645 66.4411 114.037 71.0422 116.22 75.6778C114.037 80.3134 111.645 84.949 109.046 89.4809ZM120.241 84.9836C122.113 89.6193 123.707 94.2549 125.025 98.7521C120.484 99.8592 115.701 100.793 110.744 101.52C112.442 98.8559 114.141 96.123 115.735 93.3208C117.33 90.5533 118.82 87.7512 120.241 84.9836ZM85.0943 121.896C81.8708 118.575 78.6473 114.873 75.4584 110.826C78.5779 110.964 81.7668 111.068 84.9903 111.068C88.2485 111.068 91.4721 110.998 94.6263 110.826C91.5067 114.873 88.2832 118.575 85.0943 121.896ZM59.3061 101.52C54.3841 100.793 49.6355 99.8938 45.0948 98.7867C46.3773 94.3241 47.9717 89.7231 49.7741 85.122C51.1952 87.8896 52.6857 90.6571 54.3148 93.4246C55.9439 96.1922 57.6076 98.8905 59.3061 101.52ZM84.921 29.5291C88.1446 32.8502 91.3681 36.5517 94.557 40.5993C91.4374 40.4609 88.2485 40.3571 85.025 40.3571C81.7668 40.3571 78.5433 40.4263 75.3891 40.5993C78.5086 36.5517 81.7322 32.8502 84.921 29.5291ZM59.2714 49.9051C57.573 52.5689 55.8746 55.3018 54.2801 58.1039C52.6857 60.8715 51.1952 63.639 49.7741 66.4065C47.9024 61.7709 46.308 57.1353 44.9908 52.6381C49.5315 51.5656 54.3148 50.6316 59.2714 49.9051ZM27.9026 93.2171C15.6324 87.9933 7.69488 81.1437 7.69488 75.7124C7.69488 70.2811 15.6324 63.3969 27.9026 58.2077C30.8835 56.9277 34.1417 55.7861 37.5039 54.7137C39.4796 61.4942 42.0792 68.5514 45.3028 75.7816C42.1139 82.9772 39.5489 89.9998 37.6079 96.7457C34.1764 95.6733 30.9182 94.4971 27.9026 93.2171ZM46.5506 142.652C41.8366 139.954 39.7916 129.679 41.386 116.464C41.7673 113.213 42.3912 109.788 43.1537 106.294C49.9474 107.954 57.365 109.234 65.1639 110.064C69.8432 116.464 74.6958 122.276 79.5831 127.362C68.2834 137.844 57.677 143.586 50.4673 143.586C48.9076 143.552 47.5904 143.24 46.5506 142.652ZM128.768 116.291C130.397 129.506 128.387 139.781 123.707 142.514C122.668 143.137 121.316 143.413 119.721 143.413C112.546 143.413 101.905 137.705 90.6055 127.292C95.4582 122.207 100.311 116.43 104.921 110.03C112.754 109.2 120.172 107.92 126.966 106.225C127.763 109.719 128.387 113.074 128.768 116.291ZM142.113 93.2171C139.132 94.4971 135.874 95.6387 132.511 96.7111C130.536 89.9306 127.936 82.8734 124.713 75.6432C127.901 68.4476 130.466 61.425 132.407 54.6791C135.839 55.7515 139.097 56.9277 142.147 58.2077C154.418 63.4314 162.355 70.2811 162.355 75.7124C162.32 81.1437 154.383 88.0279 142.113 93.2171Z" fill="#61DAFB"/>
</svg>
