<svg width="160" height="97" viewBox="0 0 160 97" fill="none" xmlns="http://www.w3.org/2000/svg">
<path d="M142.174 65.7321C157.946 47.0741 163.454 28.307 155.88 15.169C150.306 5.50212 138.521 0.398155 122.862 0.19454C122.207 0.186124 121.576 0.438426 121.106 0.896021C120.637 1.35362 120.368 1.97908 120.359 2.63502C120.351 3.12441 120.49 3.6049 120.756 4.01544C121.022 4.42598 121.404 4.74805 121.853 4.94072C122.151 5.06915 122.472 5.13751 122.796 5.14191C136.88 5.32419 147.034 9.72229 151.601 17.6429C157.892 28.5557 152.982 45.2915 138.403 62.5367C138.186 62.7835 138.02 63.0712 137.916 63.3829C137.811 63.6946 137.77 64.0241 137.794 64.352C137.818 64.68 137.907 64.9999 138.056 65.2928C138.205 65.5858 138.411 65.8461 138.662 66.0583C138.913 66.2703 139.203 66.4301 139.517 66.5286C139.83 66.627 140.159 66.662 140.486 66.6317C140.813 66.6013 141.13 66.5061 141.42 66.3517C141.71 66.1972 141.966 65.9866 142.174 65.7321ZM101.638 2.49782C87.3766 5.55835 72.1978 11.5403 57.6212 19.9675C21.5474 40.8226 -1.98381 71.5719 1.2856 93.8707C1.32626 94.1976 1.43171 94.5131 1.59578 94.7986C1.75984 95.0841 1.97921 95.334 2.241 95.5334C2.5028 95.7329 2.80175 95.878 3.1203 95.9602C3.43886 96.0424 3.7706 96.0601 4.09607 96.0122C4.42153 95.9642 4.73416 95.8517 5.0156 95.6812C5.29704 95.5106 5.54163 95.2855 5.73501 95.019C5.92838 94.7525 6.06665 94.45 6.1417 94.1293C6.21675 93.8086 6.22706 93.4761 6.17203 93.1513C3.27154 73.3546 25.5754 44.2051 60.0894 24.2522C74.2307 16.0761 88.9297 10.2856 102.674 7.33368C103.295 7.17739 103.831 6.78575 104.17 6.24129C104.508 5.69684 104.622 5.0421 104.488 4.41508C104.354 3.78805 103.981 3.23772 103.45 2.88006C102.918 2.5224 102.269 2.38536 101.638 2.49782Z" fill="#2DD0ED"/>
</svg>
