<svg width="150" height="118" viewBox="0 0 150 118" fill="none" xmlns="http://www.w3.org/2000/svg">
<path d="M54.9952 1.67362C30.9062 -2.71962 11.8596 1.87967 4.26878 15.0439C-1.39567 24.8674 0.221359 37.8939 8.19323 51.8178C8.35451 52.0999 8.56972 52.3473 8.82656 52.5461C9.0834 52.7448 9.37684 52.8909 9.6901 52.9759C10.0034 53.061 10.3303 53.0835 10.6522 53.042C10.9741 53.0005 11.2847 52.8959 11.5662 52.7341C12.1348 52.4075 12.5505 51.8682 12.7221 51.2347C12.8937 50.6013 12.807 49.9255 12.4813 49.356C5.29952 36.8147 3.89986 25.5727 8.54762 17.5173C14.8526 6.58124 31.8397 2.47888 54.1082 6.541C54.5108 6.62067 54.9268 6.59872 55.3187 6.47714C55.7107 6.35556 56.0663 6.13818 56.3533 5.84459C56.6404 5.55101 56.85 5.19048 56.9631 4.79552C57.0763 4.40056 57.0894 3.98361 57.0014 3.58228C56.8951 3.09976 56.647 2.66017 56.289 2.32009C55.931 1.98002 55.4795 1.75503 54.9927 1.67411L54.9952 1.67362ZM20.7199 68.7407C30.4594 79.4596 43.1138 89.5129 57.5456 97.8572C92.4875 118.059 129.687 123.458 148.02 110.94C148.548 110.566 148.908 109.998 149.022 109.36C149.137 108.722 148.997 108.065 148.632 107.529C148.267 106.993 147.707 106.623 147.073 106.496C146.438 106.37 145.779 106.498 145.237 106.853C128.829 118.056 93.4921 112.927 60.0162 93.5726C46.0143 85.4769 33.7617 75.7431 24.3747 65.4125C24.0483 65.0417 23.6185 64.7772 23.1406 64.653C22.6628 64.5289 22.1588 64.5508 21.6935 64.7159C21.3067 64.8535 20.9603 65.0854 20.6855 65.3908C20.4107 65.6961 20.2162 66.0651 20.1196 66.4646C20.023 66.8641 20.0272 67.2813 20.1321 67.6787C20.2369 68.0761 20.4389 68.4411 20.7199 68.7407Z" fill="#2DD0ED"/>
</svg>
