<svg width="171" height="174" viewBox="0 0 171 174" fill="none" xmlns="http://www.w3.org/2000/svg">
<path d="M48.1987 136.328C56.4489 159.385 69.9381 173.583 85.1101 173.583C96.1732 173.583 106.409 166.032 114.392 152.735C114.571 152.456 114.693 152.145 114.749 151.818C114.806 151.492 114.796 151.158 114.722 150.835C114.628 150.431 114.434 150.057 114.159 149.747C113.883 149.438 113.533 149.202 113.143 149.064C112.753 148.925 112.333 148.886 111.924 148.952C111.515 149.018 111.129 149.186 110.802 149.44C110.541 149.643 110.323 149.896 110.161 150.185C102.986 162.135 94.1732 168.638 85.1101 168.638C72.5098 168.638 60.475 155.973 52.8513 134.659C52.7467 134.347 52.581 134.059 52.364 133.812C52.1469 133.564 51.8829 133.363 51.5872 133.218C51.2913 133.075 50.9699 132.992 50.6417 132.974C50.3134 132.956 49.9849 133.005 49.6755 133.116C49.3661 133.227 49.082 133.399 48.8397 133.622C48.5974 133.844 48.4019 134.113 48.2644 134.412C48.127 134.711 48.0505 135.034 48.0394 135.363C48.0287 135.692 48.0836 136.02 48.2011 136.328H48.1987ZM123.529 131.816C127.798 118.158 130.089 102.397 130.089 85.9734C130.089 44.9972 115.768 9.67187 95.3671 0.600796C94.7709 0.349637 94.1001 0.342632 93.4988 0.581286C92.8975 0.81994 92.4136 1.28522 92.1511 1.87718C91.8886 2.46915 91.8684 3.1406 92.0949 3.7473C92.3213 4.35401 92.7764 4.84759 93.3623 5.12203C111.558 13.2133 125.151 46.7372 125.151 85.9734C125.151 101.904 122.929 117.168 118.816 130.339C118.709 130.652 118.666 130.982 118.689 131.311C118.713 131.64 118.802 131.962 118.951 132.256C119.176 132.699 119.529 133.064 119.964 133.303C120.399 133.543 120.896 133.646 121.39 133.598C121.884 133.551 122.352 133.355 122.734 133.037C123.115 132.719 123.393 132.294 123.529 131.816ZM170.05 129.394C170.06 127.833 169.761 126.286 169.172 124.841C168.582 123.396 167.713 122.082 166.614 120.975C165.515 119.867 164.208 118.989 162.769 118.389C161.33 117.789 159.786 117.481 158.228 117.481C156.669 117.481 155.125 117.789 153.686 118.389C152.247 118.989 150.94 119.868 149.841 120.975C148.743 122.082 147.873 123.396 147.284 124.841C146.694 126.286 146.396 127.834 146.406 129.395C146.426 132.521 147.68 135.513 149.895 137.717C152.11 139.92 155.106 141.157 158.228 141.157C161.35 141.157 164.346 139.92 166.561 137.716C168.776 135.513 170.03 132.521 170.05 129.394ZM165.109 129.394C165.109 131.222 164.384 132.974 163.093 134.267C161.803 135.559 160.052 136.285 158.228 136.285C156.867 136.285 155.536 135.881 154.405 135.124C153.273 134.367 152.391 133.291 151.871 132.031C151.35 130.772 151.214 129.387 151.479 128.05C151.745 126.714 152.4 125.486 153.362 124.523C154.325 123.559 155.551 122.903 156.885 122.637C158.22 122.371 159.604 122.507 160.861 123.029C162.118 123.55 163.193 124.433 163.949 125.566C164.705 126.699 165.109 128.032 165.109 129.394ZM11.8222 141.233C13.3748 141.233 14.9122 140.927 16.3466 140.332C17.7811 139.737 19.0844 138.865 20.1823 137.766C21.2801 136.666 22.1509 135.361 22.745 133.925C23.339 132.489 23.6447 130.949 23.6445 129.394C23.6446 127.84 23.3389 126.3 22.7448 124.864C22.1507 123.427 21.2798 122.122 20.1819 121.023C19.0841 119.924 17.7807 119.052 16.3462 118.457C14.9118 117.862 13.3744 117.556 11.8218 117.556C10.2692 117.556 8.73192 117.862 7.29758 118.457C5.86324 119.052 4.55997 119.924 3.4622 121.023C2.36443 122.123 1.49366 123.428 0.89961 124.864C0.305561 126.3 -0.000127128 127.84 3.9663e-08 129.394C-0.000127136 130.949 0.305577 132.488 0.899656 133.925C1.49373 135.361 2.36455 136.666 3.46237 137.766C4.56019 138.865 5.86352 139.737 7.29792 140.332C8.73231 140.927 10.2697 141.233 11.8222 141.233ZM11.8222 136.285C9.99675 136.285 8.24602 135.559 6.9552 134.267C5.66438 132.974 4.93921 131.221 4.93921 129.393C4.93921 127.565 5.66438 125.812 6.9552 124.519C8.24602 123.227 9.99675 122.501 11.8222 122.501C13.6477 122.501 15.3985 123.227 16.6893 124.519C17.9801 125.812 18.7053 127.565 18.7053 129.393C18.7053 131.221 17.9801 132.974 16.6893 134.267C15.3985 135.559 13.6477 136.285 11.8222 136.285Z" fill="#2DD0ED"/>
</svg>
