<svg width="120" height="80" viewBox="0 0 120 80" fill="none" xmlns="http://www.w3.org/2000/svg">
<path d="M0.283447 8.32236V15.2519H22.3899V78.1704H38.0771V15.2519H60.1836V8.4499C60.1836 4.62378 60.1836 1.52036 60.0135 1.43534C60.0135 1.3078 46.537 1.26529 30.1697 1.26529L0.410986 1.39282V8.36488L0.283447 8.32236ZM99.6352 1.22277C103.971 2.24308 107.287 4.19865 110.263 7.30206C111.836 9.00256 114.174 11.9784 114.344 12.7437C114.344 12.9987 106.99 17.9727 102.526 20.736C102.356 20.8636 101.676 20.1408 100.996 19.0355C98.7849 15.8896 96.5317 14.5292 93.0032 14.2741C87.9017 13.934 84.5007 16.6123 84.5007 21.0761C84.5007 22.4365 84.7558 23.2017 85.2659 24.3071C86.4138 26.6453 88.5394 28.0482 95.1288 30.939C107.287 36.1681 112.559 39.6116 115.747 44.543C119.361 50.0696 120.169 58.7422 117.745 65.2466C115.025 72.3462 108.393 77.1501 98.9125 78.7231C95.9366 79.2332 89.1346 79.1482 85.9461 78.5955C79.1441 77.3202 72.6397 73.9192 68.6435 69.5404C67.0706 67.8399 64.0522 63.291 64.2223 62.9934L65.8377 61.9731L72.2146 58.2746L77.0185 55.4687L78.1238 56.9567C79.5267 59.1673 82.6727 62.1432 84.5007 63.1635C90.0273 66.0118 97.4245 65.6292 101.081 62.3133C102.654 60.8678 103.334 59.3374 103.334 57.2118C103.334 55.2562 103.036 54.3634 102.058 52.8755C100.698 51.0049 97.9772 49.4745 90.3249 46.0735C81.5248 42.3324 77.7837 39.9517 74.2977 36.2956C72.2996 34.0849 70.4716 30.6414 69.6213 27.7931C68.9837 25.3274 68.7711 19.2906 69.3663 16.8674C71.1943 8.36488 77.6137 2.41313 86.7964 0.712626C89.7723 0.117451 96.7868 0.372526 99.7202 1.13775L99.6352 1.22277Z" fill="white"/>
</svg>
