<svg width="175" height="171" viewBox="0 0 175 171" fill="none" xmlns="http://www.w3.org/2000/svg">
<path d="M4.97419 60.7883C4.97419 60.7883 0.85402 57.8334 5.79822 53.8879L17.3175 43.6398C17.3175 43.6398 20.6137 40.1896 24.0986 43.1957L130.399 123.267V161.664C130.399 161.664 130.347 167.693 122.571 167.027L4.97419 60.7883Z" fill="#2489CA"/>
<path d="M32.3733 85.5371L4.97421 110.32C4.97421 110.32 2.15876 112.404 4.97421 116.128L17.6952 127.64C17.6952 127.64 20.7167 130.868 25.1802 127.196L54.2274 105.282L32.3733 85.5371Z" fill="#1070B3"/>
<path d="M80.4762 85.7424L130.725 47.5682L130.399 9.37699C130.399 9.37699 128.253 1.04188 121.094 5.38024L54.2273 65.9294L80.4762 85.7424Z" fill="#0877B9"/>
<path d="M122.571 167.078C125.489 170.05 129.026 169.077 129.026 169.077L168.184 149.879C173.197 146.48 172.493 142.261 172.493 142.261V27.6189C172.493 22.5803 167.309 20.8381 167.309 20.8381L133.369 4.5607C125.953 0.000299692 121.094 5.38055 121.094 5.38055C121.094 5.38055 127.343 0.905548 130.399 9.3773V160.964C130.399 162.006 130.176 163.03 129.729 163.953C128.837 165.746 126.897 167.42 122.244 166.72L122.571 167.078Z" fill="#3C99D4"/>
</svg>
